<svg xmlns="http://www.w3.org/2000/svg" xmlns:svg="http://www.w3.org/2000/svg" xmlns:xlink="http://www.w3.org/1999/xlink" id="svg2" width="600" height="200" version="1.1" viewBox="0 0 600 200"><metadata id="metadata7"/><g id="layer1" transform="translate(5,-564.36215)"><use id="title-1-active" width="100%" height="100%" x="0" y="0" transform="matrix(0.1875,0,0,1,381.23897,22.000028)" xlink:href="#headerbar-bg"/><use id="title-2-active" width="100%" height="100%" x="0" y="0" transform="matrix(0.1875,0,0,1,391.23897,22.000028)" xlink:href="#headerbar-bg"/><use id="title-3-active" width="100%" height="100%" x="0" y="0" transform="matrix(0.1875,0,0,1,401.23897,22.000028)" xlink:href="#headerbar-bg"/><use id="title-4-active" width="100%" height="100%" x="0" y="0" transform="matrix(0.1875,0,0,1,411.23897,22.000028)" xlink:href="#headerbar-bg"/><use id="title-1-inactive" width="100%" height="100%" x="0" y="0" transform="matrix(0.1875,0,0,1,410.73897,22.000028)" xlink:href="#headerbar-inactive-bg"/><use id="title-2-inactive" width="100%" height="100%" x="0" y="0" transform="matrix(0.1875,0,0,1,420.73897,22.000028)" xlink:href="#headerbar-inactive-bg"/><use id="title-3-inactive" width="100%" height="100%" x="0" y="0" transform="matrix(0.1875,0,0,1,430.73897,22.000028)" xlink:href="#headerbar-inactive-bg"/><use id="title-4-inactive" width="100%" height="100%" x="0" y="0" transform="matrix(0.1875,0,0,1,440.73897,22.000028)" xlink:href="#headerbar-inactive-bg"/><g id="close-active" transform="matrix(1,0,0,0.9999982,0,0.00105081)"><g id="headerbar-bg"><rect id="rect1683" width="32" height="34" x="21" y="585.362" style="fill:#242424;fill-opacity:1;stroke:none;stroke-width:1.27242;stroke-linecap:butt;stroke-linejoin:round;stroke-miterlimit:4;stroke-dasharray:none;stroke-dashoffset:0;stroke-opacity:1"/><rect style="fill:#000;fill-opacity:1;stroke:none;stroke-width:1.1547;stroke-linecap:butt;stroke-linejoin:round;stroke-miterlimit:4;stroke-dasharray:none;stroke-dashoffset:0;stroke-opacity:1" id="rect1685" width="32" height="1" x="21" y="585.362"/><rect style="opacity:.1;fill:#fff;fill-opacity:1;stroke:none;stroke-width:1.1547;stroke-linecap:butt;stroke-linejoin:round;stroke-miterlimit:4;stroke-dasharray:none;stroke-dashoffset:0;stroke-opacity:1" id="rect2083" width="32" height="1" x="21" y="586.362"/></g><circle style="opacity:1;fill:#fd5f51;fill-opacity:1;stroke-width:8;stroke-linecap:round;stroke-linejoin:round;paint-order:stroke fill markers" id="path2409" cx="37" cy="602.362" r="8"/></g><g id="close-inactive" transform="matrix(1,0,0,0.9999982,0,0.00105081)"><g id="headerbar-inactive-bg" transform="translate(120)"><rect id="rect2007" width="32" height="34" x="21" y="585.362" style="fill:#2c2c2c;fill-opacity:1;stroke:none;stroke-width:1.27242;stroke-linecap:butt;stroke-linejoin:round;stroke-miterlimit:4;stroke-dasharray:none;stroke-dashoffset:0;stroke-opacity:1"/><rect style="fill:#000;fill-opacity:1;stroke:none;stroke-width:1.1547;stroke-linecap:butt;stroke-linejoin:round;stroke-miterlimit:4;stroke-dasharray:none;stroke-dashoffset:0;stroke-opacity:1" id="rect2009" width="32" height="1" x="21" y="585.362"/></g><circle style="opacity:.3;fill:#fff;fill-opacity:1;stroke-width:8;stroke-linecap:round;stroke-linejoin:round;paint-order:stroke fill markers" id="circle2549" cx="157" cy="602.362" r="8"/></g><g id="maximize-active"><use id="use1849" width="100%" height="100%" x="0" y="0" transform="translate(0,41.000028)" xlink:href="#headerbar-bg"/><circle style="opacity:1;fill:#38c76a;fill-opacity:1;stroke-width:8;stroke-linecap:round;stroke-linejoin:round;paint-order:stroke fill markers" id="circle2551" cx="37" cy="643.362" r="8"/></g><g id="maximize-inactive"><use id="use2283" width="100%" height="100%" x="0" y="0" transform="translate(0,41.000028)" xlink:href="#headerbar-inactive-bg"/><circle style="opacity:.3;fill:#fff;fill-opacity:1;stroke-width:8;stroke-linecap:round;stroke-linejoin:round;paint-order:stroke fill markers" id="circle2557" cx="157" cy="643.362" r="8"/></g><g id="hide-active"><use id="use1857" width="100%" height="100%" x="0" y="0" transform="translate(0,82.000059)" xlink:href="#headerbar-bg"/><circle style="opacity:1;fill:#fdbe04;fill-opacity:1;stroke-width:8;stroke-linecap:round;stroke-linejoin:round;paint-order:stroke fill markers" id="circle2559" cx="37" cy="684.362" r="8"/></g><g id="hide-inactive"><use id="use2285" width="100%" height="100%" x="0" y="0" transform="translate(0,82.000059)" xlink:href="#headerbar-inactive-bg"/><circle style="opacity:.3;fill:#fff;fill-opacity:1;stroke-width:8;stroke-linecap:round;stroke-linejoin:round;paint-order:stroke fill markers" id="circle2565" cx="157" cy="684.362" r="8"/></g><g id="maximize-toggled-active"><use id="use1865" width="100%" height="100%" x="0" y="0" transform="translate(0,123.00003)" xlink:href="#headerbar-bg"/><circle style="opacity:1;fill:#38c76a;fill-opacity:1;stroke-width:8;stroke-linecap:round;stroke-linejoin:round;paint-order:stroke fill markers" id="circle2567" cx="37" cy="725.362" r="8"/></g><g id="maximize-toggled-inactive"><use id="use2287" width="100%" height="100%" x="0" y="0" transform="translate(0,123.00003)" xlink:href="#headerbar-inactive-bg"/><circle style="opacity:.3;fill:#fff;fill-opacity:1;stroke-width:8;stroke-linecap:round;stroke-linejoin:round;paint-order:stroke fill markers" id="circle2573" cx="157" cy="725.362" r="8"/></g><g id="close-prelight" transform="matrix(1,0,0,0.9999982,0,0.00105081)"><use id="use1761" width="100%" height="100%" x="0" y="0" transform="translate(40)" xlink:href="#headerbar-bg"/><circle style="opacity:1;fill:#fd5f51;fill-opacity:1;stroke-width:8;stroke-linecap:round;stroke-linejoin:round;paint-order:stroke fill markers" id="circle2545" cx="77" cy="602.362" r="8"/><path style="fill:#fff;paint-order:stroke fill markers" id="path2869" d="m 73.46475,598.327 c -0.12775,0 -0.2555,0.0486 -0.35339,0.14649 -0.19578,0.19586 -0.19578,0.51116 0,0.70703 l 3.1816,3.1816 -3.1816,3.1816 c -0.19578,0.19586 -0.19578,0.51116 0,0.70703 0.19578,0.19586 0.51118,0.19586 0.70704,0 l 3.1816,-3.1816 3.1816,3.1816 c 0.19578,0.19586 0.51114,0.19586 0.70704,0 0.19578,-0.19586 0.19578,-0.51116 0,-0.70703 l -3.1816,-3.1816 3.1816,-3.1816 c 0.19578,-0.19586 0.19578,-0.51116 0,-0.70703 -0.19578,-0.19586 -0.51118,-0.19586 -0.70704,0 l -3.1816,3.1816 -3.1816,-3.1816 c -0.09789,-0.0979 -0.22564,-0.14649 -0.35339,-0.14649 z"/></g><g id="maximize-prelight"><use id="use1851" width="100%" height="100%" x="0" y="0" transform="translate(40,41.000028)" xlink:href="#headerbar-bg"/><circle style="opacity:1;fill:#38c76a;fill-opacity:1;stroke-width:8;stroke-linecap:round;stroke-linejoin:round;paint-order:stroke fill markers" id="circle2553" cx="77" cy="643.362" r="8"/><path style="fill:#fff;paint-order:stroke fill markers" id="path2878" d="m 75,639.36212 c -1.108,0 -2,0.892 -2,2 v 4 c 0,1.108 0.89201,2 2,2 h 4 c 1.108,0 2,-0.892 2,-2 v -4 c 0,-1.108 -0.89201,-2 -2,-2 z m 0,1 h 4 c 0.554,0 1,0.44602 1,1 v 4 c 0,0.55398 -0.44602,1 -1,1 h -4 c -0.55397,0 -0.99999,-0.44602 -0.99999,-1 v -4 c 0,-0.55398 0.44602,-1 0.99999,-1 z"/></g><g id="hide-prelight"><use id="use1859" width="100%" height="100%" x="0" y="0" transform="translate(40,82.000059)" xlink:href="#headerbar-bg"/><circle style="opacity:1;fill:#fdbe04;fill-opacity:1;stroke-width:8;stroke-linecap:round;stroke-linejoin:round;paint-order:stroke fill markers" id="circle2561" cx="77" cy="684.362" r="8"/><rect style="fill:#fff;paint-order:stroke fill markers" id="rect2887" width="8" height="1" x="73" y="684.362" rx=".5" ry=".5"/></g><g id="maximize-toggled-prelight"><use id="use1867" width="100%" height="100%" x="0" y="0" transform="translate(40,123.00003)" xlink:href="#headerbar-bg"/><circle style="opacity:1;fill:#38c76a;fill-opacity:1;stroke-width:8;stroke-linecap:round;stroke-linejoin:round;paint-order:stroke fill markers" id="circle2569" cx="77" cy="725.362" r="8"/><g id="g2908" transform="translate(69,717.36212)" style="fill:#fff"><path style="fill:#fff;paint-order:stroke fill markers" id="path2896" d="M 6,6 C 4.892,6 4,6.892 4,8 v 2 c 0,1.108 0.892,2 2,2 h 2 c 1.108,0 2,-0.892 2,-2 V 8 C 10,6.892 9.108,6 8,6 Z m 0,1 h 2 c 0.554,0 1,0.446 1,1 v 2 c 0,0.554 -0.446,1 -1,1 H 6 C 5.446,11 5,10.554 5,10 V 8 C 5,7.446 5.446,7 6,7 Z"/><path style="fill:#fff;paint-order:stroke fill markers" id="path2898" d="M 8,4 C 6.892,4 6,4.892 6,6 H 7 C 7,5.446 7.446,5 8,5 h 2 c 0.554,0 1,0.446 1,1 v 2 c 0,0.554 -0.446,1 -1,1 v 1 c 1.108,0 2,-0.892 2,-2 V 6 C 12,4.892 11.108,4 10,4 Z" opacity=".35"/></g></g><g id="close-pressed" transform="matrix(1,0,0,0.9999982,0,0.00105081)"><use id="use1845" width="100%" height="100%" x="0" y="0" transform="translate(80)" xlink:href="#headerbar-bg"/><circle style="opacity:1;fill:#fd5f51;fill-opacity:1;stroke-width:8;stroke-linecap:round;stroke-linejoin:round;paint-order:stroke fill markers" id="circle2547" cx="117" cy="602.362" r="8"/><circle style="opacity:.25;fill:#fff;fill-opacity:1;stroke-width:8;stroke-linecap:round;stroke-linejoin:round;paint-order:stroke fill markers" id="circle2807" cx="117" cy="602.362" r="8"/><path style="fill:#fff;paint-order:stroke fill markers" id="path2928" d="m 113.46474,598.327 c -0.12775,0 -0.2555,0.0486 -0.35339,0.14649 -0.19578,0.19586 -0.19578,0.51116 0,0.70703 l 3.1816,3.1816 -3.1816,3.1816 c -0.19578,0.19586 -0.19578,0.51116 0,0.70703 0.19578,0.19586 0.51118,0.19586 0.70704,0 l 3.18161,-3.1816 3.1816,3.1816 c 0.19578,0.19586 0.51114,0.19586 0.70704,0 0.19578,-0.19586 0.19578,-0.51116 0,-0.70703 l -3.1816,-3.1816 3.1816,-3.1816 c 0.19578,-0.19586 0.19578,-0.51116 0,-0.70703 -0.19578,-0.19586 -0.51117,-0.19586 -0.70704,0 l -3.1816,3.1816 -3.18161,-3.1816 c -0.0979,-0.0979 -0.22564,-0.14649 -0.35339,-0.14649 z"/></g><g id="maximize-pressed"><use id="use1853" width="100%" height="100%" x="0" y="0" transform="translate(80,41.000028)" xlink:href="#headerbar-bg"/><circle style="opacity:1;fill:#38c76a;fill-opacity:1;stroke-width:8;stroke-linecap:round;stroke-linejoin:round;paint-order:stroke fill markers" id="circle2555" cx="117" cy="643.362" r="8"/><circle style="opacity:.25;fill:#fff;fill-opacity:1;stroke-width:8;stroke-linecap:round;stroke-linejoin:round;paint-order:stroke fill markers" id="circle2809" cx="117" cy="643.362" r="8"/><path style="fill:#fff;paint-order:stroke fill markers" id="path2930" d="m 115,639.36212 c -1.108,0 -2,0.892 -2,2 v 4 c 0,1.108 0.89201,2 2,2 h 4 c 1.10801,0 2,-0.892 2,-2 v -4 c 0,-1.108 -0.89201,-2 -2,-2 z m 0,1 h 4 c 0.554,0 1,0.44602 1,1 v 4 c 0,0.55398 -0.44602,1 -1,1 h -4 c -0.55397,0 -0.99999,-0.44602 -0.99999,-1 v -4 c 0,-0.55398 0.44603,-1 0.99999,-1 z"/></g><g id="hide-pressed"><use id="use1861" width="100%" height="100%" x="0" y="0" transform="translate(80,82.000059)" xlink:href="#headerbar-bg"/><circle style="opacity:1;fill:#fdbe04;fill-opacity:1;stroke-width:8;stroke-linecap:round;stroke-linejoin:round;paint-order:stroke fill markers" id="circle2563" cx="117" cy="684.362" r="8"/><circle style="opacity:.25;fill:#fff;fill-opacity:1;stroke-width:8;stroke-linecap:round;stroke-linejoin:round;paint-order:stroke fill markers" id="circle2811" cx="117" cy="684.362" r="8"/><rect style="fill:#fff;paint-order:stroke fill markers" id="rect2932" width="8" height="1" x="113" y="684.362" rx=".5" ry=".5"/></g><g id="maximize-toggled-pressed"><use id="use1869" width="100%" height="100%" x="0" y="0" transform="translate(80,123.00003)" xlink:href="#headerbar-bg"/><circle style="opacity:1;fill:#38c76a;fill-opacity:1;stroke-width:8;stroke-linecap:round;stroke-linejoin:round;paint-order:stroke fill markers" id="circle2571" cx="117" cy="725.362" r="8"/><circle style="opacity:.25;fill:#fff;fill-opacity:1;stroke-width:8;stroke-linecap:round;stroke-linejoin:round;paint-order:stroke fill markers" id="circle2813" cx="117" cy="725.362" r="8"/><g id="g2938" transform="translate(109,717.36212)" style="fill:#fff"><path style="fill:#fff;paint-order:stroke fill markers" id="path2934" d="M 6,6 C 4.892,6 4,6.892 4,8 v 2 c 0,1.108 0.892,2 2,2 h 2 c 1.108,0 2,-0.892 2,-2 V 8 C 10,6.892 9.108,6 8,6 Z m 0,1 h 2 c 0.554,0 1,0.446 1,1 v 2 c 0,0.554 -0.446,1 -1,1 H 6 C 5.446,11 5,10.554 5,10 V 8 C 5,7.446 5.446,7 6,7 Z"/><path style="fill:#fff;paint-order:stroke fill markers" id="path2936" d="M 8,4 C 6.892,4 6,4.892 6,6 H 7 C 7,5.446 7.446,5 8,5 h 2 c 0.554,0 1,0.446 1,1 v 2 c 0,0.554 -0.446,1 -1,1 v 1 c 1.108,0 2,-0.892 2,-2 V 6 C 12,4.892 11.108,4 10,4 Z" opacity=".35"/></g></g><g id="stick-active"><use id="use1897" width="100%" height="100%" x="0" y="0" transform="translate(190,103.00009)" xlink:href="#headerbar-bg"/><path id="path66" d="m 227,699.36215 a 6,6 0 0 0 -6,6 6,6 0 0 0 6,6 6,6 0 0 0 6,-6 6,6 0 0 0 -6,-6 z m 0,1 a 5,5 0 0 1 5,5 5,5 0 0 1 -5,5 5,5 0 0 1 -5,-5 5,5 0 0 1 5,-5 z" style="opacity:.75;fill:#fff"/></g><g id="shade-active"><use id="use1881" width="100%" height="100%" x="0" y="0" transform="translate(190,21.000089)" xlink:href="#headerbar-bg"/><path id="path199" d="m 227.00007,619.82699 -6.3633,6.3633 0.70703,0.70703 5.6562,-5.6562 5.6562,5.6562 0.70703,-0.70703 -5.6562,-5.6562 z" style="opacity:.75;fill:#fff"/></g><g id="shade-toggled-active"><use id="use1889" width="100%" height="100%" x="0" y="0" transform="translate(190,62.000089)" xlink:href="#headerbar-bg"/><path id="path231" d="m 227.00007,667.89732 -6.3633,-6.3633 0.70703,-0.70703 5.6562,5.6562 5.6562,-5.6562 0.70703,0.70703 -5.6562,5.6562 z" style="opacity:.75;fill:#fff"/></g><g id="stick-toggled-active"><use id="use1905" width="100%" height="100%" x="0" y="0" transform="translate(190,145.00003)" xlink:href="#headerbar-bg"/><path id="circle263" d="m 227,741.36209 a 6,6 0 0 0 -6,6 6,6 0 0 0 6,6 6,6 0 0 0 6,-6 6,6 0 0 0 -6,-6 z m 0,1 a 5,5 0 0 1 5,5 5,5 0 0 1 -5,5 5,5 0 0 1 -5,-5 5,5 0 0 1 5,-5 z m 0,3 a 2,2 0 0 0 -2,2 2,2 0 0 0 2,2 2,2 0 0 0 2,-2 2,2 0 0 0 -2,-2 z" style="fill:#fff;opacity:.75"/></g><g id="menu-active"><use id="use1873" width="100%" height="100%" x="0" y="0" transform="translate(190,-19.999911)" xlink:href="#headerbar-bg"/><path id="circle336" d="m 222,581.36215 a 1,1 0 0 0 -1,1 1,1 0 0 0 1,1 1,1 0 0 0 1,-1 1,1 0 0 0 -1,-1 z m 5,0 a 1,1 0 0 0 -1,1 1,1 0 0 0 1,1 1,1 0 0 0 1,-1 1,1 0 0 0 -1,-1 z m 5,0 a 1,1 0 0 0 -1,1 1,1 0 0 0 1,1 1,1 0 0 0 1,-1 1,1 0 0 0 -1,-1 z" style="fill:#fff;opacity:.75"/></g><g id="stick-prelight"><use id="use1899" width="100%" height="100%" x="0" y="0" transform="translate(230,103.00009)" xlink:href="#headerbar-bg"/><circle style="opacity:.15;fill:#fff;fill-opacity:1;stroke-width:8;stroke-linecap:round;stroke-linejoin:round;paint-order:stroke fill markers" id="circle3362" cx="267" cy="705.362" r="8"/><path id="path3412" d="m 267,699.36215 a 6,6 0 0 0 -6,6 6,6 0 0 0 6,6 6,6 0 0 0 6,-6 6,6 0 0 0 -6,-6 z m 0,1 a 5,5 0 0 1 5,5 5,5 0 0 1 -5,5 5,5 0 0 1 -5,-5 5,5 0 0 1 5,-5 z" style="opacity:.75;fill:#fff"/></g><g id="shade-prelight"><use id="use1883" width="100%" height="100%" x="0" y="0" transform="translate(230,21.000089)" xlink:href="#headerbar-bg"/><circle style="opacity:.15;fill:#fff;fill-opacity:1;stroke-width:8;stroke-linecap:round;stroke-linejoin:round;paint-order:stroke fill markers" id="circle3358" cx="267" cy="623.362" r="8"/><path id="path3414" d="m 267.00007,619.82699 -6.3633,6.3633 0.70703,0.70703 5.6562,-5.6562 5.6562,5.6562 0.70703,-0.70703 -5.6562,-5.6562 z" style="opacity:.75;fill:#fff"/></g><g id="shade-toggled-prelight"><use id="use1891" width="100%" height="100%" x="0" y="0" transform="translate(230,62.000089)" xlink:href="#headerbar-bg"/><circle style="opacity:.15;fill:#fff;fill-opacity:1;stroke-width:8;stroke-linecap:round;stroke-linejoin:round;paint-order:stroke fill markers" id="circle3360" cx="267" cy="664.362" r="8"/><path id="path3416" d="m 267.00007,667.89732 -6.3633,-6.3633 0.70703,-0.70703 5.6562,5.6562 5.6562,-5.6562 0.70703,0.70703 -5.6562,5.6562 z" style="opacity:.75;fill:#fff"/></g><g id="stick-toggled-prelight"><use id="use1907" width="100%" height="100%" x="0" y="0" transform="translate(230,145.00003)" xlink:href="#headerbar-bg"/><circle style="opacity:.15;fill:#fff;fill-opacity:1;stroke-width:8;stroke-linecap:round;stroke-linejoin:round;paint-order:stroke fill markers" id="circle3364" cx="267" cy="747.362" r="8"/><path id="path3418" d="m 267,741.36209 a 6,6 0 0 0 -6,6 6,6 0 0 0 6,6 6,6 0 0 0 6,-6 6,6 0 0 0 -6,-6 z m 0,1 a 5,5 0 0 1 5,5 5,5 0 0 1 -5,5 5,5 0 0 1 -5,-5 5,5 0 0 1 5,-5 z m 0,3 a 2,2 0 0 0 -2,2 2,2 0 0 0 2,2 2,2 0 0 0 2,-2 2,2 0 0 0 -2,-2 z" style="opacity:.75;fill:#fff"/></g><g id="menu-prelight"><use id="use1875" width="100%" height="100%" x="0" y="0" transform="translate(230,-19.999911)" xlink:href="#headerbar-bg"/><circle style="opacity:.15;fill:#fff;fill-opacity:1;stroke-width:8;stroke-linecap:round;stroke-linejoin:round;paint-order:stroke fill markers" id="circle3356" cx="267" cy="582.362" r="8"/><path id="path3420" d="m 262,581.36215 a 1,1 0 0 0 -1,1 1,1 0 0 0 1,1 1,1 0 0 0 1,-1 1,1 0 0 0 -1,-1 z m 5,0 a 1,1 0 0 0 -1,1 1,1 0 0 0 1,1 1,1 0 0 0 1,-1 1,1 0 0 0 -1,-1 z m 5,0 a 1,1 0 0 0 -1,1 1,1 0 0 0 1,1 1,1 0 0 0 1,-1 1,1 0 0 0 -1,-1 z" style="opacity:.75;fill:#fff"/></g><g id="stick-pressed"><use id="use1901" width="100%" height="100%" x="0" y="0" transform="translate(270,103.00009)" xlink:href="#headerbar-bg"/><circle style="opacity:.25;fill:#fff;fill-opacity:1;stroke-width:8;stroke-linecap:round;stroke-linejoin:round;paint-order:stroke fill markers" id="circle3390" cx="307" cy="705.362" r="8"/><path id="path3422" d="m 307,699.36215 a 6,6 0 0 0 -6,6 6,6 0 0 0 6,6 6,6 0 0 0 6,-6 6,6 0 0 0 -6,-6 z m 0,1 a 5,5 0 0 1 5,5 5,5 0 0 1 -5,5 5,5 0 0 1 -5,-5 5,5 0 0 1 5,-5 z" style="opacity:.75;fill:#fff"/></g><g id="shade-pressed"><use id="use1885" width="100%" height="100%" x="0" y="0" transform="translate(270,21.000028)" xlink:href="#headerbar-bg"/><circle style="opacity:.25;fill:#fff;fill-opacity:1;stroke-width:8;stroke-linecap:round;stroke-linejoin:round;paint-order:stroke fill markers" id="circle3386" cx="307" cy="623.362" r="8"/><path id="path3424" d="m 307.00007,619.82699 -6.3633,6.3633 0.70703,0.70703 5.6562,-5.6562 5.6562,5.6562 0.70703,-0.70703 -5.6562,-5.6562 z" style="opacity:.75;fill:#fff"/></g><g id="shade-toggled-pressed"><use id="use1893" width="100%" height="100%" x="0" y="0" transform="translate(270,62.000028)" xlink:href="#headerbar-bg"/><circle style="opacity:.25;fill:#fff;fill-opacity:1;stroke-width:8;stroke-linecap:round;stroke-linejoin:round;paint-order:stroke fill markers" id="circle3388" cx="307" cy="664.362" r="8"/><path id="path3426" d="m 307.00007,667.89732 -6.3633,-6.3633 0.70703,-0.70703 5.6562,5.6562 5.6562,-5.6562 0.70703,0.70703 -5.6562,5.6562 z" style="opacity:.75;fill:#fff"/></g><g id="stick-toggled-pressed"><use id="use1909" width="100%" height="100%" x="0" y="0" transform="translate(270,145.00009)" xlink:href="#headerbar-bg"/><circle style="opacity:.25;fill:#fff;fill-opacity:1;stroke-width:8;stroke-linecap:round;stroke-linejoin:round;paint-order:stroke fill markers" id="circle3392" cx="307" cy="747.362" r="8"/><path id="path3428" d="m 307,741.36209 a 6,6 0 0 0 -6,6 6,6 0 0 0 6,6 6,6 0 0 0 6,-6 6,6 0 0 0 -6,-6 z m 0,1 a 5,5 0 0 1 5,5 5,5 0 0 1 -5,5 5,5 0 0 1 -5,-5 5,5 0 0 1 5,-5 z m 0,3 a 2,2 0 0 0 -2,2 2,2 0 0 0 2,2 2,2 0 0 0 2,-2 2,2 0 0 0 -2,-2 z" style="opacity:.75;fill:#fff"/></g><g id="menu-pressed"><use id="use1877" width="100%" height="100%" x="0" y="0" transform="translate(270,-19.999911)" xlink:href="#headerbar-bg"/><circle style="opacity:.25;fill:#fff;fill-opacity:1;stroke-width:8;stroke-linecap:round;stroke-linejoin:round;paint-order:stroke fill markers" id="circle3384" cx="307" cy="582.362" r="8"/><path id="path3430" d="m 302,581.36215 a 1,1 0 0 0 -1,1 1,1 0 0 0 1,1 1,1 0 0 0 1,-1 1,1 0 0 0 -1,-1 z m 5,0 a 1,1 0 0 0 -1,1 1,1 0 0 0 1,1 1,1 0 0 0 1,-1 1,1 0 0 0 -1,-1 z m 5,0 a 1,1 0 0 0 -1,1 1,1 0 0 0 1,1 1,1 0 0 0 1,-1 1,1 0 0 0 -1,-1 z" style="opacity:.75;fill:#fff"/></g><g id="stick-inactive"><use id="use2295" width="100%" height="100%" x="0" y="0" transform="translate(190,103.00003)" xlink:href="#headerbar-inactive-bg"/><path id="path3432" d="m 347,699.36215 a 6,6 0 0 0 -6,6 6,6 0 0 0 6,6 6,6 0 0 0 6,-6 6,6 0 0 0 -6,-6 z m 0,1 a 5,5 0 0 1 5,5 5,5 0 0 1 -5,5 5,5 0 0 1 -5,-5 5,5 0 0 1 5,-5 z" style="opacity:.3;fill:#fff"/></g><g id="shade-inactive"><use id="use2291" width="100%" height="100%" x="0" y="0" transform="translate(190,21.000089)" xlink:href="#headerbar-inactive-bg"/><path id="path3434" d="m 347.00007,619.82699 -6.3633,6.3633 0.70703,0.70703 5.6562,-5.6562 5.6562,5.6562 0.70703,-0.70703 -5.6562,-5.6562 z" style="opacity:.3;fill:#fff"/></g><g id="shade-toggled-inactive"><use id="use2293" width="100%" height="100%" x="0" y="0" transform="translate(190,62.00003)" xlink:href="#headerbar-inactive-bg"/><path id="path3436" fill="#fff" stroke-linecap="round" stroke-linejoin="round" stroke-miterlimit="2" stroke-width="2" d="m 347.00007,667.89732 -6.3633,-6.3633 0.70703,-0.70703 5.6562,5.6562 5.6562,-5.6562 0.70703,0.70703 -5.6562,5.6562 z" opacity=".75" style="opacity:.3;fill:#fff"/></g><g id="stick-toggled-inactive"><use id="use2297" width="100%" height="100%" x="0" y="0" transform="translate(190,145.00003)" xlink:href="#headerbar-inactive-bg"/><path id="path3438" d="m 347,741.36209 a 6,6 0 0 0 -6,6 6,6 0 0 0 6,6 6,6 0 0 0 6,-6 6,6 0 0 0 -6,-6 z m 0,1 a 5,5 0 0 1 5,5 5,5 0 0 1 -5,5 5,5 0 0 1 -5,-5 5,5 0 0 1 5,-5 z m 0,3 a 2,2 0 0 0 -2,2 2,2 0 0 0 2,2 2,2 0 0 0 2,-2 2,2 0 0 0 -2,-2 z" style="opacity:.3;fill:#fff"/></g><g id="menu-inactive"><use id="use2289" width="100%" height="100%" x="0" y="0" transform="translate(190,-19.999972)" xlink:href="#headerbar-inactive-bg"/><path id="path3440" d="m 342,581.36215 a 1,1 0 0 0 -1,1 1,1 0 0 0 1,1 1,1 0 0 0 1,-1 1,1 0 0 0 -1,-1 z m 5,0 a 1,1 0 0 0 -1,1 1,1 0 0 0 1,1 1,1 0 0 0 1,-1 1,1 0 0 0 -1,-1 z m 5,0 a 1,1 0 0 0 -1,1 1,1 0 0 0 1,1 1,1 0 0 0 1,-1 1,1 0 0 0 -1,-1 z" style="opacity:.3;fill:#fff"/></g><use id="title-5-active" width="100%" height="100%" x="0" y="0" transform="matrix(0.1875,0,0,1,421.23897,22.000028)" xlink:href="#headerbar-bg"/><use id="title-5-inactive" width="100%" height="100%" x="0" y="0" transform="matrix(0.1875,0,0,1,450.73897,22.000028)" xlink:href="#headerbar-inactive-bg"/><g id="top-left-inactive" transform="translate(410,-66.999986)"><g id="g8402" transform="translate(-3)"><path id="path8400" d="m 410,93 v 1 h -2 v 1 h -1 v 1 h -1 v 1 h -1 v 1 h -1 v 2 h -1 v 27 h 1 1 10 V 95 94 93 Z" transform="translate(-412,631.36214)" style="opacity:1;fill:#2c2c2c;fill-opacity:1;stroke-width:7.36944;stroke-linecap:round;stroke-linejoin:round;paint-order:stroke fill markers"/></g><path id="rect8404" d="m 410,93 v 1 h 5 v -1 z m 0,1 h -2 v 1 h 2 z m -2,1 h -1 v 1 h 1 z m -1,1 h -1 v 1 h 1 z m -1,1 h -1 v 1 h 1 z m -1,1 h -1 v 2 h 1 z m -1,2 h -1 v 27 h 1 z" transform="translate(-415,631.36214)" style="opacity:1;fill:#000;stroke-width:17.8885;stroke-linecap:round;stroke-linejoin:round;paint-order:stroke fill markers"/></g><use id="top-right-active" width="100%" height="100%" x="0" y="0" transform="matrix(-1,0,0,1,808,2.0898446e-7)" xlink:href="#top-left-active"/><g id="top-right-inactive" transform="matrix(-1,0,0,1,426,-66.999958)"><g id="g8510" transform="translate(-3)"><path id="path8508" d="m 431,93 v 1 1 32 h 10 1 1 v -27 h -1 v -2 h -1 v -1 h -1 v -1 h -1 v -1 h -1 v -1 h -2 v -1 z" transform="matrix(-1,0,0,1,434,631.36211)" style="opacity:1;fill:#2c2c2c;fill-opacity:1;stroke-width:7.36944;stroke-linecap:round;stroke-linejoin:round;paint-order:stroke fill markers"/></g><path id="rect8512" d="m 431,93 v 1 h 5 v -1 z m 5,1 v 1 h 2 v -1 z m 2,1 v 1 h 1 v -1 z m 1,1 v 1 h 1 v -1 z m 1,1 v 1 h 1 v -1 z m 1,1 v 2 h 1 v -2 z m 1,2 v 27 h 1 v -27 z" transform="matrix(-1,0,0,1,431,631.36211)" style="opacity:1;fill:#000;stroke-width:17.8885;stroke-linecap:round;stroke-linejoin:round;paint-order:stroke fill markers"/></g><g id="left-active" transform="translate(397,-64.999958)"><rect id="rect4138-3" width="2" height="16" x="-48" y="734.362" transform="scale(-1,1)" style="opacity:1;fill:#242424;fill-opacity:1;stroke:none;stroke-width:1;stroke-linecap:butt;stroke-linejoin:round;stroke-miterlimit:4;stroke-dasharray:none;stroke-dashoffset:0;stroke-opacity:1"/><rect style="opacity:1;fill:#000;fill-opacity:1;stroke:none;stroke-width:1;stroke-linecap:butt;stroke-linejoin:round;stroke-miterlimit:4;stroke-dasharray:none;stroke-dashoffset:0;stroke-opacity:1" id="rect1400" width="1" height="16" x="-47" y="734.362" transform="scale(-1,1)"/><rect style="opacity:.1;fill:#fff;fill-opacity:1;stroke:none;stroke-width:1;stroke-linecap:butt;stroke-linejoin:round;stroke-miterlimit:4;stroke-dasharray:none;stroke-dashoffset:0;stroke-opacity:1" id="rect19191" width="1" height="16" x="-48" y="734.362" transform="scale(-1,1)"/></g><g id="left-inactive" transform="translate(402,-64.999958)"><rect style="opacity:1;fill:#2c2c2c;fill-opacity:1;stroke:none;stroke-width:1;stroke-linecap:butt;stroke-linejoin:round;stroke-miterlimit:4;stroke-dasharray:none;stroke-dashoffset:0;stroke-opacity:1" id="rect1448" width="2" height="16" x="-48" y="734.362" transform="scale(-1,1)"/><rect id="rect1450" width="1" height="16" x="-47" y="734.362" transform="scale(-1,1)" style="opacity:1;fill:#000;fill-opacity:1;stroke:none;stroke-width:1;stroke-linecap:butt;stroke-linejoin:round;stroke-miterlimit:4;stroke-dasharray:none;stroke-dashoffset:0;stroke-opacity:1"/></g><g id="right-inactive" transform="matrix(-1,0,0,1,506,-64.999958)"><rect style="opacity:1;fill:#2c2c2c;fill-opacity:1;stroke:none;stroke-width:1;stroke-linecap:butt;stroke-linejoin:round;stroke-miterlimit:4;stroke-dasharray:none;stroke-dashoffset:0;stroke-opacity:1" id="rect1454" width="2" height="16" x="-48" y="734.362" transform="scale(-1,1)"/><rect id="rect1456" width="1" height="16" x="-47" y="734.362" transform="scale(-1,1)" style="opacity:1;fill:#000;fill-opacity:1;stroke:none;stroke-width:1;stroke-linecap:butt;stroke-linejoin:round;stroke-miterlimit:4;stroke-dasharray:none;stroke-dashoffset:0;stroke-opacity:1"/></g><g id="right-active" transform="matrix(-1,0,0,1,501,-64.999958)"><rect id="rect1460" width="2" height="16" x="-48" y="734.362" transform="scale(-1,1)" style="opacity:1;fill:#242424;fill-opacity:1;stroke:none;stroke-width:1;stroke-linecap:butt;stroke-linejoin:round;stroke-miterlimit:4;stroke-dasharray:none;stroke-dashoffset:0;stroke-opacity:1"/><rect style="opacity:1;fill:#000;fill-opacity:1;stroke:none;stroke-width:1;stroke-linecap:butt;stroke-linejoin:round;stroke-miterlimit:4;stroke-dasharray:none;stroke-dashoffset:0;stroke-opacity:1" id="rect1462" width="1" height="16" x="-47" y="734.362" transform="scale(-1,1)"/><rect style="opacity:.1;fill:#fff;fill-opacity:1;stroke:none;stroke-width:1;stroke-linecap:butt;stroke-linejoin:round;stroke-miterlimit:4;stroke-dasharray:none;stroke-dashoffset:0;stroke-opacity:1" id="rect27600" width="1" height="16" x="-48" y="734.362" transform="scale(-1,1)"/></g><g id="bottom-left-active" transform="translate(374,-66.999986)"><path id="path1472" d="m 98,730.36203 h -2 v 9.00012 h 1 v 1 l 9,-1.2e-4 v -2 l -8,1.2e-4 z" style="opacity:1;fill:#242424;fill-opacity:1;stroke:none;stroke-width:.666667;stroke-linecap:butt;stroke-linejoin:round;stroke-miterlimit:4;stroke-dasharray:none;stroke-dashoffset:0;stroke-opacity:1"/><path id="path52127" d="m 98,730.36203 h -2 v 9.00012 h 1 v 1 l 9,-1.2e-4 v -2 l -8,1.2e-4 z" style="opacity:.1;fill:#fff;fill-opacity:1;stroke:none;stroke-width:.666667;stroke-linecap:butt;stroke-linejoin:round;stroke-miterlimit:4;stroke-dasharray:none;stroke-dashoffset:0;stroke-opacity:1"/><path style="opacity:1;fill:#000;fill-opacity:1;stroke:none;stroke-width:.666667;stroke-linecap:butt;stroke-linejoin:round;stroke-miterlimit:4;stroke-dasharray:none;stroke-dashoffset:0;stroke-opacity:1" id="path1466" d="m 97,730.36215 -1,-1.2e-4 v 9.00012 h 1 v 1 l 9,-1.2e-4 v -0.99988 h -9 z"/></g><g id="bottom-left-inactive" transform="translate(374,-54.999986)"><path style="opacity:1;fill:#2c2c2c;fill-opacity:1;stroke:none;stroke-width:.666667;stroke-linecap:butt;stroke-linejoin:round;stroke-miterlimit:4;stroke-dasharray:none;stroke-dashoffset:0;stroke-opacity:1" id="path1475" d="m 98,730.36203 h -2 v 9.00012 h 1 v 1 l 9,-1.2e-4 v -2 l -8,1.2e-4 z"/><path id="path1477" d="m 97,730.36215 -1,-1.2e-4 v 9.00012 h 1 v 1 l 9,-1.2e-4 v -0.99988 h -9 z" style="opacity:1;fill:#000;fill-opacity:1;stroke:none;stroke-width:.666667;stroke-linecap:butt;stroke-linejoin:round;stroke-miterlimit:4;stroke-dasharray:none;stroke-dashoffset:0;stroke-opacity:1"/></g><g id="bottom-right-inactive" transform="matrix(-1,0,0,1,606,-54.999986)"><path id="path1485" d="m 98,730.36203 h -2 v 9.00012 h 1 v 1 l 9,-1.2e-4 v -2 l -8,1.2e-4 z" style="opacity:1;fill:#2c2c2c;fill-opacity:1;stroke:none;stroke-width:.666667;stroke-linecap:butt;stroke-linejoin:round;stroke-miterlimit:4;stroke-dasharray:none;stroke-dashoffset:0;stroke-opacity:1"/><path style="opacity:1;fill:#000;fill-opacity:1;stroke:none;stroke-width:.666667;stroke-linecap:butt;stroke-linejoin:round;stroke-miterlimit:4;stroke-dasharray:none;stroke-dashoffset:0;stroke-opacity:1" id="path1487" d="m 97,730.36215 -1,-1.2e-4 v 9.00012 h 1 v 1 l 9,-1.2e-4 v -0.99988 h -9 z"/></g><g id="bottom-right-active" transform="matrix(-1,0,0,1,606,-66.999986)"><path style="opacity:1;fill:#242424;fill-opacity:1;stroke:none;stroke-width:.666667;stroke-linecap:butt;stroke-linejoin:round;stroke-miterlimit:4;stroke-dasharray:none;stroke-dashoffset:0;stroke-opacity:1" id="path1493" d="m 98,730.36203 h -2 v 9.00012 h 1 v 1 l 9,-1.2e-4 v -2 l -8,1.2e-4 z"/><path style="opacity:.1;fill:#fff;fill-opacity:1;stroke:none;stroke-width:.666667;stroke-linecap:butt;stroke-linejoin:round;stroke-miterlimit:4;stroke-dasharray:none;stroke-dashoffset:0;stroke-opacity:1" id="path52129" d="m 98,730.36203 h -2 v 9.00012 h 1 v 1 l 9,-1.2e-4 v -2 l -8,1.2e-4 z"/><path id="path1495" d="m 97,730.36215 -1,-1.2e-4 v 9.00012 h 1 v 1 l 9,-1.2e-4 v -0.99988 h -9 z" style="opacity:1;fill:#000;fill-opacity:1;stroke:none;stroke-width:.666667;stroke-linecap:butt;stroke-linejoin:round;stroke-miterlimit:4;stroke-dasharray:none;stroke-dashoffset:0;stroke-opacity:1"/></g><g id="bottom-active" transform="matrix(0,-1,-1,0,1232.3621,719.36216)"><rect id="rect1501" width="2" height="16" x="-48" y="734.362" transform="scale(-1,1)" style="opacity:1;fill:#242424;fill-opacity:1;stroke:none;stroke-width:1;stroke-linecap:butt;stroke-linejoin:round;stroke-miterlimit:4;stroke-dasharray:none;stroke-dashoffset:0;stroke-opacity:1"/><rect id="rect52131" width="2" height="16" x="-48" y="734.362" transform="scale(-1,1)" style="opacity:.1;fill:#fff;fill-opacity:1;stroke:none;stroke-width:1;stroke-linecap:butt;stroke-linejoin:round;stroke-miterlimit:4;stroke-dasharray:none;stroke-dashoffset:0;stroke-opacity:1"/><rect style="opacity:1;fill:#000;fill-opacity:1;stroke:none;stroke-width:1;stroke-linecap:butt;stroke-linejoin:round;stroke-miterlimit:4;stroke-dasharray:none;stroke-dashoffset:0;stroke-opacity:1" id="rect1503" width="1" height="16" x="-47" y="734.362" transform="scale(-1,1)"/></g><g id="bottom-inactive" transform="matrix(0,-1,-1,0,1232.3621,731.36216)"><rect style="opacity:1;fill:#2c2c2c;fill-opacity:1;stroke:none;stroke-width:1;stroke-linecap:butt;stroke-linejoin:round;stroke-miterlimit:4;stroke-dasharray:none;stroke-dashoffset:0;stroke-opacity:1" id="rect1507" width="2" height="16" x="-48" y="734.362" transform="scale(-1,1)"/><rect id="rect1509" width="1" height="16" x="-47" y="734.362" transform="scale(-1,1)" style="opacity:1;fill:#000;fill-opacity:1;stroke:none;stroke-width:1;stroke-linecap:butt;stroke-linejoin:round;stroke-miterlimit:4;stroke-dasharray:none;stroke-dashoffset:0;stroke-opacity:1"/></g><g id="top-left-active" transform="translate(396,-66.999986)"><g id="g1732" transform="translate(-3)"><path id="path1725" d="m 396,93 v 1 h -2 v 1 h -1 v 1 h -1 v 1 h -1 v 1 h -1 v 2 h -1 v 27 h 1 1 10 V 95 94 93 Z" transform="translate(-398,631.36214)" style="opacity:1;fill:#242424;fill-opacity:1;stroke-width:7.36944;stroke-linecap:round;stroke-linejoin:round;paint-order:stroke fill markers"/></g><path id="rect1882" d="m 396,93 v 1 h 5 v -1 z m 0,1 h -2 v 1 h 2 z m -2,1 h -1 v 1 h 1 z m -1,1 h -1 v 1 h 1 z m -1,1 h -1 v 1 h 1 z m -1,1 h -1 v 2 h 1 z m -1,2 h -1 v 27 h 1 z" transform="translate(-401,631.36214)" style="opacity:1;fill:#000;stroke-width:17.8885;stroke-linecap:round;stroke-linejoin:round;paint-order:stroke fill markers"/><rect style="opacity:.1;fill:#fff;fill-opacity:1;stroke-width:17.8885;stroke-linecap:round;stroke-linejoin:round;paint-order:stroke fill markers" id="rect1906" width="5" height="1" x="-5" y="725.362" rx="0" ry="0"/><rect style="opacity:.1;fill:#fff;fill-opacity:1;stroke-width:11.3137;stroke-linecap:round;stroke-linejoin:round;paint-order:stroke fill markers" id="rect5898" width="2" height="1" x="-7" y="726.362" rx="0" ry="0"/><rect style="opacity:.1;fill:#fff;fill-opacity:1;stroke-width:8;stroke-linecap:round;stroke-linejoin:round;paint-order:stroke fill markers" id="rect5900" width="1" height="1" x="-8" y="727.362" rx="0" ry="0"/><rect style="opacity:.1;fill:#fff;fill-opacity:1;stroke-width:8;stroke-linecap:round;stroke-linejoin:round;paint-order:stroke fill markers" id="rect5902" width="1" height="1" x="-9" y="728.362" rx="0" ry="0"/><rect style="opacity:.1;fill:#fff;fill-opacity:1;stroke-width:11.3137;stroke-linecap:round;stroke-linejoin:round;paint-order:stroke fill markers" id="rect5904" width="1" height="2" x="-10" y="729.362" rx="0" ry="0"/><rect style="opacity:.1;fill:#fff;fill-opacity:1;stroke-width:42.332;stroke-linecap:round;stroke-linejoin:round;paint-order:stroke fill markers" id="rect5912" width="1" height="27" x="-11" y="731.362" rx="0" ry="0"/></g></g></svg>